<svg xmlns="http://www.w3.org/2000/svg" xmlns:xlink="http://www.w3.org/1999/xlink" viewBox="0 0 165.53 165.53"><defs><style>.cls-1{fill:none;stroke:#000;stroke-miterlimit:10;stroke-width:2px;}.cls-2{fill:url(#linear-gradient);}.cls-3{fill:url(#linear-gradient-2);}</style><linearGradient id="linear-gradient" x1="88.9" y1="67.9" x2="26.01" y2="46.66" gradientUnits="userSpaceOnUse"><stop offset="0" stop-color="#ff3600"/><stop offset="1" stop-color="#7190ff"/></linearGradient><linearGradient id="linear-gradient-2" x1="129.21" y1="149.32" x2="96.85" y2="138.39" xlink:href="#linear-gradient"/></defs><title>Asset 3</title><g id="Layer_2" data-name="Layer 2"><g id="Layer_1-2" data-name="Layer 1"><rect class="cls-1" x="18.46" y="18.46" width="128.61" height="128.61" transform="matrix(0.32, -0.95, 0.95, 0.32, -22.13, 134.7)"/><line class="cls-1" x1="133.4" y1="133.81" x2="11.56" y2="92.65"/><line class="cls-1" x1="143.69" y1="103.34" x2="21.84" y2="62.19"/><line class="cls-1" x1="153.98" y1="72.88" x2="32.13" y2="31.73"/><polyline class="cls-1" points="31.73 133.4 42.02 102.93 51.96 73.48 52.3 72.47"/><polyline class="cls-1" points="62.59 42.02 62.91 41.07 72.88 11.56"/><line class="cls-1" x1="103.34" y1="21.84" x2="62.19" y2="143.69"/><line class="cls-1" x1="133.81" y1="32.13" x2="92.65" y2="153.98"/><path class="cls-2" d="M33.37,34.25,90.58,53.58l-9,26.73L24.34,61l9-26.73m-1.88-3.8L20.54,62.87,83.43,84.11,94.38,51.69,31.49,30.45Z"/><path class="cls-3" d="M104.21,126l26.68,9-9,26.73-26.68-9,9-26.73m-1.89-3.8L91.38,154.6l32.36,10.93,11-32.41-32.37-10.93Z"/></g></g></svg>