<svg xmlns="http://www.w3.org/2000/svg" viewBox="0 0 549.45 232.5"><defs><style>.cls-1{fill:#333;}</style></defs><title>Asset 8</title><g id="Layer_2" data-name="Layer 2"><g id="Layer_1-2" data-name="Layer 1"><path class="cls-1" d="M66.42,232.5H0V0H66.42ZM8.29,224.22H58.13V8.29H8.29Z"/><path class="cls-1" d="M433.19,232.5H370.92V0h62.27a116.25,116.25,0,1,1,0,232.5Zm-54-8.29h54a108,108,0,1,0,0-215.92h-54Z"/><path class="cls-1" d="M287.63,232.5h-137L82.87,0H355.42Zm-130.75-8.28H281.41l63-215.93H93.92Z"/><path class="cls-1" d="M430.86,160.88a4.14,4.14,0,0,1-4.14-4.15v-81a4.15,4.15,0,1,1,8.29,0v81A4.15,4.15,0,0,1,430.86,160.88Z"/><path class="cls-1" d="M182.64,160.73a4.14,4.14,0,0,1-2.32-7.58L219.14,127,258,153.15a4.14,4.14,0,1,1-4.62,6.87l-34.2-23L185,160A4.1,4.1,0,0,1,182.64,160.73Z"/></g></g></svg>