<svg xmlns="http://www.w3.org/2000/svg" viewBox="0 0 549.44 232.51"><defs><style>.cls-1{fill:#333;}</style></defs><title>Asset 9</title><g id="Layer_2" data-name="Layer 2"><g id="Layer_1-2" data-name="Layer 1"><rect class="cls-1" width="66.41" height="232.51"/><path class="cls-1" d="M433.19,0H370.92V232.5h62.27A116.25,116.25,0,1,0,433.19,0ZM435,156.74a4.14,4.14,0,0,1-8.28,0v-81a4.14,4.14,0,1,1,8.28,0Z"/><path class="cls-1" d="M150.66,232.5h137L355.42,0H82.86Zm108.42-73.6a4.15,4.15,0,0,1-5.75,1.13l-34.19-23L185,160a4.19,4.19,0,0,1-2.31.7,4.14,4.14,0,0,1-2.32-7.58L219.14,127,258,153.15A4.14,4.14,0,0,1,259.08,158.9Z"/></g></g></svg>